<svg xmlns="http://www.w3.org/2000/svg" width="1320" height="264" viewBox="0 0 1320 264"><rect x="0" y="0" width="44" height="44" fill="#ffffff" /><rect x="308" y="0" width="44" height="44" fill="#ffffff" /><rect x="352" y="0" width="44" height="44" fill="#ffffff" /><rect x="528" y="0" width="44" height="44" fill="#ffffff" /><rect x="572" y="0" width="44" height="44" fill="#ffffff" /><rect x="792" y="0" width="44" height="44" fill="#ffffff" /><rect x="924" y="0" width="44" height="44" fill="#ffffff" /><rect x="1100" y="0" width="44" height="44" fill="#ffffff" /><rect x="1144" y="0" width="44" height="44" fill="#ffffff" /><rect x="1188" y="0" width="44" height="44" fill="#ffffff" /><rect x="0" y="44" width="44" height="44" fill="#ffffff" /><rect x="264" y="44" width="44" height="44" fill="#ffffff" /><rect x="396" y="44" width="44" height="44" fill="#ffffff" /><rect x="528" y="44" width="44" height="44" fill="#ffffff" /><rect x="616" y="44" width="44" height="44" fill="#ffffff" /><rect x="792" y="44" width="44" height="44" fill="#ffffff" /><rect x="924" y="44" width="44" height="44" fill="#ffffff" /><rect x="1056" y="44" width="44" height="44" fill="#ffffff" /><rect x="0" y="88" width="44" height="44" fill="#ffffff" /><rect x="44" y="88" width="44" height="44" fill="#ffffff" /><rect x="88" y="88" width="44" height="44" fill="#ffffff" /><rect x="264" y="88" width="44" height="44" fill="#ffffff" /><rect x="396" y="88" width="44" height="44" fill="#ffffff" /><rect x="528" y="88" width="44" height="44" fill="#ffffff" /><rect x="792" y="88" width="44" height="44" fill="#ffffff" /><rect x="924" y="88" width="44" height="44" fill="#ffffff" /><rect x="1100" y="88" width="44" height="44" fill="#ffffff" /><rect x="1144" y="88" width="44" height="44" fill="#ffffff" /><rect x="0" y="132" width="44" height="44" fill="#ffffff" /><rect x="132" y="132" width="44" height="44" fill="#ffffff" /><rect x="264" y="132" width="44" height="44" fill="#ffffff" /><rect x="396" y="132" width="44" height="44" fill="#ffffff" /><rect x="528" y="132" width="44" height="44" fill="#ffffff" /><rect x="792" y="132" width="44" height="44" fill="#ffffff" /><rect x="924" y="132" width="44" height="44" fill="#ffffff" /><rect x="1188" y="132" width="44" height="44" fill="#ffffff" /><rect x="0" y="176" width="44" height="44" fill="#ffffff" /><rect x="132" y="176" width="44" height="44" fill="#ffffff" /><rect x="308" y="176" width="44" height="44" fill="#ffffff" /><rect x="352" y="176" width="44" height="44" fill="#ffffff" /><rect x="528" y="176" width="44" height="44" fill="#ffffff" /><rect x="836" y="176" width="44" height="44" fill="#ffffff" /><rect x="880" y="176" width="44" height="44" fill="#ffffff" /><rect x="1056" y="176" width="44" height="44" fill="#ffffff" /><rect x="1100" y="176" width="44" height="44" fill="#ffffff" /><rect x="1144" y="176" width="44" height="44" fill="#ffffff" /></svg>