<svg xmlns="http://www.w3.org/2000/svg" width="1560" height="312" viewBox="0 0 1560 312"><rect x="0" y="0" width="52" height="52" fill="#000000" /><rect x="364" y="0" width="52" height="52" fill="#000000" /><rect x="416" y="0" width="52" height="52" fill="#000000" /><rect x="624" y="0" width="52" height="52" fill="#000000" /><rect x="676" y="0" width="52" height="52" fill="#000000" /><rect x="936" y="0" width="52" height="52" fill="#000000" /><rect x="1092" y="0" width="52" height="52" fill="#000000" /><rect x="1300" y="0" width="52" height="52" fill="#000000" /><rect x="1352" y="0" width="52" height="52" fill="#000000" /><rect x="1404" y="0" width="52" height="52" fill="#000000" /><rect x="0" y="52" width="52" height="52" fill="#000000" /><rect x="312" y="52" width="52" height="52" fill="#000000" /><rect x="468" y="52" width="52" height="52" fill="#000000" /><rect x="624" y="52" width="52" height="52" fill="#000000" /><rect x="728" y="52" width="52" height="52" fill="#000000" /><rect x="936" y="52" width="52" height="52" fill="#000000" /><rect x="1092" y="52" width="52" height="52" fill="#000000" /><rect x="1248" y="52" width="52" height="52" fill="#000000" /><rect x="0" y="104" width="52" height="52" fill="#000000" /><rect x="52" y="104" width="52" height="52" fill="#000000" /><rect x="104" y="104" width="52" height="52" fill="#000000" /><rect x="312" y="104" width="52" height="52" fill="#000000" /><rect x="468" y="104" width="52" height="52" fill="#000000" /><rect x="624" y="104" width="52" height="52" fill="#000000" /><rect x="936" y="104" width="52" height="52" fill="#000000" /><rect x="1092" y="104" width="52" height="52" fill="#000000" /><rect x="1300" y="104" width="52" height="52" fill="#000000" /><rect x="1352" y="104" width="52" height="52" fill="#000000" /><rect x="0" y="156" width="52" height="52" fill="#000000" /><rect x="156" y="156" width="52" height="52" fill="#000000" /><rect x="312" y="156" width="52" height="52" fill="#000000" /><rect x="468" y="156" width="52" height="52" fill="#000000" /><rect x="624" y="156" width="52" height="52" fill="#000000" /><rect x="936" y="156" width="52" height="52" fill="#000000" /><rect x="1092" y="156" width="52" height="52" fill="#000000" /><rect x="1404" y="156" width="52" height="52" fill="#000000" /><rect x="0" y="208" width="52" height="52" fill="#000000" /><rect x="156" y="208" width="52" height="52" fill="#000000" /><rect x="364" y="208" width="52" height="52" fill="#000000" /><rect x="416" y="208" width="52" height="52" fill="#000000" /><rect x="624" y="208" width="52" height="52" fill="#000000" /><rect x="988" y="208" width="52" height="52" fill="#000000" /><rect x="1040" y="208" width="52" height="52" fill="#000000" /><rect x="1248" y="208" width="52" height="52" fill="#000000" /><rect x="1300" y="208" width="52" height="52" fill="#000000" /><rect x="1352" y="208" width="52" height="52" fill="#000000" /></svg>