<svg xmlns="http://www.w3.org/2000/svg" width="840" height="168" viewBox="0 0 840 168"><rect x="0" y="0" width="28" height="28" fill="#ffffff" /><rect x="196" y="0" width="28" height="28" fill="#ffffff" /><rect x="224" y="0" width="28" height="28" fill="#ffffff" /><rect x="336" y="0" width="28" height="28" fill="#ffffff" /><rect x="364" y="0" width="28" height="28" fill="#ffffff" /><rect x="504" y="0" width="28" height="28" fill="#ffffff" /><rect x="588" y="0" width="28" height="28" fill="#ffffff" /><rect x="700" y="0" width="28" height="28" fill="#ffffff" /><rect x="728" y="0" width="28" height="28" fill="#ffffff" /><rect x="756" y="0" width="28" height="28" fill="#ffffff" /><rect x="0" y="28" width="28" height="28" fill="#ffffff" /><rect x="168" y="28" width="28" height="28" fill="#ffffff" /><rect x="252" y="28" width="28" height="28" fill="#ffffff" /><rect x="336" y="28" width="28" height="28" fill="#ffffff" /><rect x="392" y="28" width="28" height="28" fill="#ffffff" /><rect x="504" y="28" width="28" height="28" fill="#ffffff" /><rect x="588" y="28" width="28" height="28" fill="#ffffff" /><rect x="672" y="28" width="28" height="28" fill="#ffffff" /><rect x="0" y="56" width="28" height="28" fill="#ffffff" /><rect x="28" y="56" width="28" height="28" fill="#ffffff" /><rect x="56" y="56" width="28" height="28" fill="#ffffff" /><rect x="168" y="56" width="28" height="28" fill="#ffffff" /><rect x="252" y="56" width="28" height="28" fill="#ffffff" /><rect x="336" y="56" width="28" height="28" fill="#ffffff" /><rect x="504" y="56" width="28" height="28" fill="#ffffff" /><rect x="588" y="56" width="28" height="28" fill="#ffffff" /><rect x="700" y="56" width="28" height="28" fill="#ffffff" /><rect x="728" y="56" width="28" height="28" fill="#ffffff" /><rect x="0" y="84" width="28" height="28" fill="#ffffff" /><rect x="84" y="84" width="28" height="28" fill="#ffffff" /><rect x="168" y="84" width="28" height="28" fill="#ffffff" /><rect x="252" y="84" width="28" height="28" fill="#ffffff" /><rect x="336" y="84" width="28" height="28" fill="#ffffff" /><rect x="504" y="84" width="28" height="28" fill="#ffffff" /><rect x="588" y="84" width="28" height="28" fill="#ffffff" /><rect x="756" y="84" width="28" height="28" fill="#ffffff" /><rect x="0" y="112" width="28" height="28" fill="#ffffff" /><rect x="84" y="112" width="28" height="28" fill="#ffffff" /><rect x="196" y="112" width="28" height="28" fill="#ffffff" /><rect x="224" y="112" width="28" height="28" fill="#ffffff" /><rect x="336" y="112" width="28" height="28" fill="#ffffff" /><rect x="532" y="112" width="28" height="28" fill="#ffffff" /><rect x="560" y="112" width="28" height="28" fill="#ffffff" /><rect x="672" y="112" width="28" height="28" fill="#ffffff" /><rect x="700" y="112" width="28" height="28" fill="#ffffff" /><rect x="728" y="112" width="28" height="28" fill="#ffffff" /></svg>